<?xml version="1.0" encoding="utf-8"?>
<!DOCTYPE svg PUBLIC "-//W3C//DTD SVG 1.1//EN" "http://www.w3.org/Graphics/SVG/1.1/DTD/svg11.dtd">
<svg version="1.1" id="Layer_1" xmlns="http://www.w3.org/2000/svg" xmlns:xlink="http://www.w3.org/1999/xlink" x="0px" y="0px"
	 width="39.775px" height="36.521px" viewBox="0 0 39.775 36.521" enable-background="new 0 0 39.775 36.521" xml:space="preserve">
<g>
	<g>
		<g>
			<path fill="#333" d="M22.195,2.445C15.689-1.957,6.847-0.253,2.445,6.25c-4.402,6.504-2.697,15.347,3.807,19.75
				c6.506,4.402,15.347,2.697,19.749-3.807C30.401,15.689,28.701,6.848,22.195,2.445z M22.929,20.113
				c-3.256,4.809-9.791,6.069-14.6,2.815c-4.805-3.253-6.066-9.791-2.812-14.598c3.253-4.807,9.79-6.067,14.596-2.813
				C24.922,8.771,26.182,15.307,22.929,20.113z"/>
		</g>
	</g>
	<path fill="#333" d="M39.39,35.953c-0.818,0.945-2.667,0.683-4.132-0.583L22.752,24.545c0,0,0.973-0.494,1.79-1.44l0,0
		c0.818-0.944,1.169-1.979,1.169-1.979l12.507,10.823C39.683,33.217,40.205,35.008,39.39,35.953L39.39,35.953z"/>
</g>
</svg>