<?xml version="1.0" encoding="utf-8"?>
<!DOCTYPE svg PUBLIC "-//W3C//DTD SVG 1.1//EN" "http://www.w3.org/Graphics/SVG/1.1/DTD/svg11.dtd">
<svg version="1.1" id="Layer_1" xmlns="http://www.w3.org/2000/svg" xmlns:xlink="http://www.w3.org/1999/xlink" x="0px" y="0px"
	 width="40px" height="40px" viewBox="0 0 40 40" enable-background="new 0 0 40 40" xml:space="preserve">
<g>
	<g>
		<path fill="#fff" d="M20,0C8.954,0,0,8.954,0,20s8.954,20,20,20s20-8.954,20-20S31.047,0,20,0z M32.551,29.323
			c-0.496,0.573-1.617,0.414-2.506-0.354l-7.202-6.233c-2.877,2.426-7.117,2.766-10.387,0.552c-3.945-2.67-4.979-8.033-2.31-11.977
			c2.669-3.944,8.032-4.978,11.977-2.308c3.839,2.598,4.908,7.741,2.505,11.651l7.212,6.241
			C32.729,27.664,33.045,28.75,32.551,29.323z M20.862,10.866c-2.916-1.973-6.879-1.209-8.852,1.706
			c-1.974,2.916-1.209,6.88,1.706,8.854c2.916,1.973,6.879,1.208,8.853-1.708C24.541,16.803,23.777,12.839,20.862,10.866z"/>
	</g>
</g>
</svg>
